<svg xmlns="http://www.w3.org/2000/svg" xmlns:xlink="http://www.w3.org/1999/xlink" width="340" zoomAndPan="magnify" viewBox="0 0 255 149.999998" height="200" preserveAspectRatio="xMidYMid meet" version="1.0"><defs><g/><clipPath id="ea092b445f"><path d="M 35 33 L 96.613281 33 L 96.613281 132.394531 L 35 132.394531 Z M 35 33 " clip-rule="nonzero"/></clipPath><clipPath id="35b27f6b44"><path d="M 4.363281 20.644531 L 66 20.644531 L 66 120 L 4.363281 120 Z M 4.363281 20.644531 " clip-rule="nonzero"/></clipPath></defs><rect x="-25.5" width="306" fill="#ffffff" y="-15" height="179.999997" fill-opacity="1"/><rect x="-25.5" width="306" fill="#ffffff" y="-15" height="179.999997" fill-opacity="1"/><g clip-path="url(#ea092b445f)"><path fill="#e87a00" d="M 80.3125 101.453125 L 35.09375 75.34375 L 35.09375 96.730469 L 96.550781 132.210938 L 96.550781 33.402344 L 80.3125 33.402344 L 80.3125 101.453125 " fill-opacity="1" fill-rule="nonzero"/></g><g clip-path="url(#35b27f6b44)"><path fill="#000000" d="M 4.367188 20.636719 L 4.367188 119.445312 L 20.601562 119.445312 L 20.601562 51.394531 L 65.820312 77.5 L 65.820312 56.117188 L 4.367188 20.636719 " fill-opacity="1" fill-rule="nonzero"/></g><g fill="#000000" fill-opacity="1"><g transform="translate(98.059648, 109.663737)"><g><path d="M 30.078125 -10.96875 C 30.078125 -7.25 28.898438 -4.410156 26.546875 -2.453125 C 24.191406 -0.503906 20.851562 0.46875 16.53125 0.46875 C 12.195312 0.46875 8.847656 -0.503906 6.484375 -2.453125 C 4.117188 -4.410156 2.9375 -7.25 2.9375 -10.96875 L 2.9375 -27.265625 L 11.6875 -27.265625 L 11.6875 -11.09375 C 11.6875 -9.5625 12.09375 -8.335938 12.90625 -7.421875 C 13.726562 -6.515625 14.921875 -6.0625 16.484375 -6.0625 C 18.046875 -6.0625 19.238281 -6.523438 20.0625 -7.453125 C 20.894531 -8.378906 21.3125 -9.59375 21.3125 -11.09375 L 21.3125 -27.265625 L 30.078125 -27.265625 Z M 30.078125 -10.96875 "/></g></g></g><g fill="#000000" fill-opacity="1"><g transform="translate(131.069405, 109.663737)"><g><path d="M 28.8125 -18.90625 C 28.8125 -17.238281 28.359375 -15.726562 27.453125 -14.375 C 26.554688 -13.03125 25.25 -12.039062 23.53125 -11.40625 L 29.59375 0 L 19.765625 0 L 14.9375 -9.953125 L 11.6875 -9.953125 L 11.6875 0 L 2.9375 0 L 2.9375 -27.265625 L 19.609375 -27.265625 C 21.566406 -27.265625 23.238281 -26.882812 24.625 -26.125 C 26.007812 -25.375 27.050781 -24.359375 27.75 -23.078125 C 28.457031 -21.796875 28.8125 -20.40625 28.8125 -18.90625 Z M 19.890625 -18.546875 C 19.890625 -19.253906 19.648438 -19.847656 19.171875 -20.328125 C 18.703125 -20.804688 18.125 -21.046875 17.4375 -21.046875 L 11.6875 -21.046875 L 11.6875 -16.015625 L 17.4375 -16.015625 C 18.125 -16.015625 18.703125 -16.253906 19.171875 -16.734375 C 19.648438 -17.222656 19.890625 -17.828125 19.890625 -18.546875 Z M 19.890625 -18.546875 "/></g></g></g><g fill="#000000" fill-opacity="1"><g transform="translate(161.899645, 109.663737)"><g><path d="M 21.078125 -27.265625 C 22.453125 -27.265625 23.710938 -26.976562 24.859375 -26.40625 C 26.015625 -25.84375 26.925781 -25.046875 27.59375 -24.015625 C 28.269531 -22.984375 28.609375 -21.832031 28.609375 -20.5625 C 28.609375 -17.207031 27.085938 -15.09375 24.046875 -14.21875 L 24.046875 -14.0625 C 27.515625 -13.269531 29.25 -11 29.25 -7.25 C 29.25 -5.820312 28.894531 -4.5625 28.1875 -3.46875 C 27.488281 -2.375 26.53125 -1.519531 25.3125 -0.90625 C 24.101562 -0.300781 22.769531 0 21.3125 0 L 2.9375 0 L 2.9375 -27.265625 Z M 11.6875 -16.640625 L 17.71875 -16.640625 C 18.289062 -16.640625 18.769531 -16.84375 19.15625 -17.25 C 19.539062 -17.664062 19.734375 -18.175781 19.734375 -18.78125 L 19.734375 -19.171875 C 19.734375 -19.753906 19.535156 -20.25 19.140625 -20.65625 C 18.742188 -21.070312 18.269531 -21.28125 17.71875 -21.28125 L 11.6875 -21.28125 Z M 11.6875 -6.34375 L 18.34375 -6.34375 C 18.925781 -6.34375 19.410156 -6.546875 19.796875 -6.953125 C 20.179688 -7.359375 20.375 -7.867188 20.375 -8.484375 L 20.375 -8.875 C 20.375 -9.476562 20.179688 -9.984375 19.796875 -10.390625 C 19.410156 -10.804688 18.925781 -11.015625 18.34375 -11.015625 L 11.6875 -11.015625 Z M 11.6875 -6.34375 "/></g></g></g><g fill="#000000" fill-opacity="1"><g transform="translate(192.729886, 109.663737)"><g><path d="M 2.9375 -27.265625 L 26.515625 -27.265625 L 26.515625 -20.71875 L 11.6875 -20.71875 L 11.6875 -16.953125 L 24.375 -16.953125 L 24.375 -10.703125 L 11.6875 -10.703125 L 11.6875 -6.53125 L 26.78125 -6.53125 L 26.78125 0 L 2.9375 0 Z M 2.9375 -27.265625 "/></g></g></g><g fill="#000000" fill-opacity="1"><g transform="translate(221.34098, 109.663737)"><g><path d="M 21.390625 -27.265625 L 32.25 -27.265625 L 22.46875 -16.046875 L 32.453125 0 L 22.109375 0 L 16.4375 -9.984375 L 11.6875 -6.109375 L 11.6875 0 L 2.9375 0 L 2.9375 -27.265625 L 11.6875 -27.265625 L 11.6875 -15.609375 Z M 21.390625 -27.265625 "/></g></g></g></svg>