<svg xmlns="http://www.w3.org/2000/svg" xmlns:xlink="http://www.w3.org/1999/xlink" width="200" zoomAndPan="magnify" viewBox="0 0 150 127.500001" height="170" preserveAspectRatio="xMidYMid meet" version="1.0"><defs><g/><clipPath id="c5b03333f1"><path d="M 0.292969 0 L 149.707031 0 L 149.707031 127.003906 L 0.292969 127.003906 Z M 0.292969 0 " clip-rule="nonzero"/></clipPath><clipPath id="edc1540418"><path d="M 59 16 L 128 16 L 128 126.773438 L 59 126.773438 Z M 59 16 " clip-rule="nonzero"/></clipPath><clipPath id="51c8b1a7a3"><path d="M 24.917969 2.011719 L 94 2.011719 L 94 113 L 24.917969 113 Z M 24.917969 2.011719 " clip-rule="nonzero"/></clipPath></defs><g clip-path="url(#c5b03333f1)"><path fill="#ffffff" d="M 0.292969 0 L 149.707031 0 L 149.707031 127.003906 L 0.292969 127.003906 Z M 0.292969 0 " fill-opacity="1" fill-rule="nonzero"/><path fill="#ffffff" d="M 0.292969 0 L 149.707031 0 L 149.707031 127.003906 L 0.292969 127.003906 Z M 0.292969 0 " fill-opacity="1" fill-rule="nonzero"/></g><g clip-path="url(#edc1540418)"><path fill="#e87a00" d="M 109.640625 92.152344 L 59.199219 63.027344 L 59.199219 86.882812 L 127.75 126.460938 L 127.75 16.242188 L 109.640625 16.242188 L 109.640625 92.152344 " fill-opacity="1" fill-rule="nonzero"/></g><g clip-path="url(#51c8b1a7a3)"><path fill="#000000" d="M 24.925781 2.003906 L 24.925781 112.21875 L 43.035156 112.21875 L 43.035156 36.3125 L 93.476562 65.433594 L 93.476562 41.582031 L 24.925781 2.003906 " fill-opacity="1" fill-rule="nonzero"/></g><g fill="#000000" fill-opacity="1"><g transform="translate(64.614948, 43.09393)"><g><path d="M 3.921875 0 L 3.34375 0 L 1.015625 -3.578125 L 1 -3.578125 C 1.03125 -3.160156 1.046875 -2.773438 1.046875 -2.421875 L 1.046875 0 L 0.578125 0 L 0.578125 -4.265625 L 1.140625 -4.265625 L 3.46875 -0.703125 L 3.484375 -0.703125 C 3.484375 -0.753906 3.472656 -0.921875 3.453125 -1.203125 C 3.441406 -1.484375 3.441406 -1.6875 3.453125 -1.8125 L 3.453125 -4.265625 L 3.921875 -4.265625 Z M 3.921875 0 "/></g></g><g transform="translate(69.120715, 43.09393)"><g><path d="M 0.96875 -3.1875 L 0.96875 -1.125 C 0.96875 -0.863281 1.023438 -0.664062 1.140625 -0.53125 C 1.265625 -0.40625 1.453125 -0.34375 1.703125 -0.34375 C 2.035156 -0.34375 2.28125 -0.429688 2.4375 -0.609375 C 2.59375 -0.796875 2.671875 -1.097656 2.671875 -1.515625 L 2.671875 -3.1875 L 3.15625 -3.1875 L 3.15625 0 L 2.75 0 L 2.6875 -0.421875 L 2.65625 -0.421875 C 2.550781 -0.265625 2.410156 -0.144531 2.234375 -0.0625 C 2.066406 0.0195312 1.867188 0.0625 1.640625 0.0625 C 1.253906 0.0625 0.960938 -0.03125 0.765625 -0.21875 C 0.578125 -0.40625 0.484375 -0.703125 0.484375 -1.109375 L 0.484375 -3.1875 Z M 0.96875 -3.1875 "/></g></g><g transform="translate(72.788947, 43.09393)"><g><path d="M 1.96875 -3.25 C 2.113281 -3.25 2.242188 -3.238281 2.359375 -3.21875 L 2.28125 -2.765625 C 2.15625 -2.796875 2.039062 -2.8125 1.9375 -2.8125 C 1.675781 -2.8125 1.453125 -2.707031 1.265625 -2.5 C 1.085938 -2.289062 1 -2.03125 1 -1.71875 L 1 0 L 0.515625 0 L 0.515625 -3.1875 L 0.90625 -3.1875 L 0.96875 -2.609375 L 0.984375 -2.609375 C 1.109375 -2.816406 1.253906 -2.972656 1.421875 -3.078125 C 1.585938 -3.191406 1.769531 -3.25 1.96875 -3.25 Z M 1.96875 -3.25 "/></g></g><g transform="translate(75.228599, 43.09393)"><g><path d="M 2 -3.25 C 2.414062 -3.25 2.738281 -3.101562 2.96875 -2.8125 C 3.207031 -2.53125 3.328125 -2.125 3.328125 -1.59375 C 3.328125 -1.070312 3.207031 -0.664062 2.96875 -0.375 C 2.738281 -0.0820312 2.414062 0.0625 2 0.0625 C 1.789062 0.0625 1.597656 0.0234375 1.421875 -0.046875 C 1.253906 -0.128906 1.113281 -0.25 1 -0.40625 L 0.96875 -0.40625 L 0.859375 0 L 0.515625 0 L 0.515625 -4.53125 L 1 -4.53125 L 1 -3.4375 C 1 -3.1875 0.988281 -2.960938 0.96875 -2.765625 L 1 -2.765625 C 1.21875 -3.085938 1.550781 -3.25 2 -3.25 Z M 1.921875 -2.84375 C 1.597656 -2.84375 1.363281 -2.742188 1.21875 -2.546875 C 1.070312 -2.359375 1 -2.039062 1 -1.59375 C 1 -1.144531 1.070312 -0.820312 1.21875 -0.625 C 1.375 -0.4375 1.613281 -0.34375 1.9375 -0.34375 C 2.238281 -0.34375 2.460938 -0.453125 2.609375 -0.671875 C 2.753906 -0.890625 2.828125 -1.203125 2.828125 -1.609375 C 2.828125 -2.023438 2.753906 -2.332031 2.609375 -2.53125 C 2.460938 -2.738281 2.234375 -2.84375 1.921875 -2.84375 Z M 1.921875 -2.84375 "/></g></g><g transform="translate(78.890994, 43.09393)"><g><path d="M 1.859375 0.0625 C 1.390625 0.0625 1.015625 -0.078125 0.734375 -0.359375 C 0.460938 -0.648438 0.328125 -1.054688 0.328125 -1.578125 C 0.328125 -2.085938 0.453125 -2.492188 0.703125 -2.796875 C 0.960938 -3.097656 1.304688 -3.25 1.734375 -3.25 C 2.140625 -3.25 2.457031 -3.117188 2.6875 -2.859375 C 2.914062 -2.597656 3.03125 -2.25 3.03125 -1.8125 L 3.03125 -1.515625 L 0.84375 -1.515625 C 0.84375 -1.140625 0.929688 -0.851562 1.109375 -0.65625 C 1.296875 -0.457031 1.550781 -0.359375 1.875 -0.359375 C 2.21875 -0.359375 2.5625 -0.429688 2.90625 -0.578125 L 2.90625 -0.15625 C 2.726562 -0.0703125 2.5625 -0.015625 2.40625 0.015625 C 2.257812 0.046875 2.078125 0.0625 1.859375 0.0625 Z M 1.734375 -2.84375 C 1.472656 -2.84375 1.265625 -2.757812 1.109375 -2.59375 C 0.960938 -2.425781 0.875 -2.195312 0.84375 -1.90625 L 2.515625 -1.90625 C 2.515625 -2.207031 2.445312 -2.4375 2.3125 -2.59375 C 2.175781 -2.757812 1.984375 -2.84375 1.734375 -2.84375 Z M 1.734375 -2.84375 "/></g></g><g transform="translate(82.244056, 43.09393)"><g><path d="M 0.984375 -1.640625 C 1.066406 -1.753906 1.195312 -1.90625 1.375 -2.09375 L 2.40625 -3.1875 L 2.984375 -3.1875 L 1.6875 -1.828125 L 3.0625 0 L 2.484375 0 L 1.359375 -1.515625 L 0.984375 -1.1875 L 0.984375 0 L 0.515625 0 L 0.515625 -4.53125 L 0.984375 -4.53125 L 0.984375 -2.125 C 0.984375 -2.019531 0.976562 -1.859375 0.96875 -1.640625 Z M 0.984375 -1.640625 "/></g></g></g></svg>